<svg xmlns="http://www.w3.org/2000/svg" xmlns:xlink="http://www.w3.org/1999/xlink" viewBox="0 0 345 100"><path d="M0 50c0 27.6 22.4 50 50 50 8 0 15.6-1.9 22.4-5.3l-22-44.3H0V50z" fill="#fff2bb"/><path d="M50.4 0H50C22.4 0 0 22.4 0 50v.4h50.4V0z" fill="#535353"/><path d="M100 50C100 22.5 77.8.2 50.4 0v50.4l46.4 17.1C98.9 62 100 56.2 100 50z" fill="#dfdfdf"/><path d="M96.8 67.5L50.4 50.4l22 44.3c11.2-5.6 20-15.3 24.4-27.2z" fill="#de6356"/><defs><path id="a" d="M156 20h188.1v58.3H156z"/></defs><clipPath id="b"><use xlink:href="#a" overflow="visible"/></clipPath><path d="M156 20v58.3h3.5V51.5h25.2v-3.3h-25.2V23.3h29V20z" clip-path="url(#b)" fill="#2b2b2b"/><g clip-path="url(#b)"><defs><path id="c" d="M156 20h188.1v58.3H156z"/></defs><clipPath id="d"><use xlink:href="#c" overflow="visible"/></clipPath><path d="M202 25.3c0-2.4 1.5-3.5 3.4-3.5 1.7 0 3.4 1 3.4 3.5 0 2.3-1.6 3.4-3.4 3.4-1.9 0-3.4-1-3.4-3.4m1.7 13.7h3.3v39.4h-3.3V39zm20.1 0h3.3v4.9c2.7-3.5 8.5-5.8 13.7-5.8 10.6 0 14.2 5.1 14.2 14.6v25.6h-3.3V52.7c0-7.5-2.5-11.4-10.9-11.4-6.3 0-11 2.5-13.7 6.2v30.8h-3.3V39zm79.9 27.4h-19.3l-3.5 11.9H267l19.6-57.1h14.9l19.7 57.1h-13.9l-3.6-11.9zm-16.1-10.5h12.9l-6.4-21.3-6.5 21.3zM330.3 27c0-4.6 3-6.8 6.9-6.8 3.5 0 6.8 2.1 6.8 6.8 0 4.8-3.4 6.6-6.8 6.6-4 0-6.9-1.8-6.9-6.6m1.1 12.8h12v38.5h-12V39.8z" clip-path="url(#d)" fill="#2b2b2b"/></g></svg>